<svg width="19" height="20" viewBox="0 0 19 20" fill="none" xmlns="http://www.w3.org/2000/svg">
<path d="M17.1842 2.72667L15.2808 0.760833C15.0471 0.520805 14.7678 0.329867 14.4592 0.199218C14.1507 0.0685687 13.8192 0.000838693 13.4842 0L9.55501 0C8.59484 0.0012121 7.66445 0.333408 6.92064 0.940598C6.17683 1.54779 5.66509 2.39284 5.47168 3.33333H5.38835C4.28368 3.33466 3.22464 3.77407 2.44353 4.55518C1.66241 5.3363 1.223 6.39534 1.22168 7.5V15.8333C1.223 16.938 1.66241 17.997 2.44353 18.7782C3.22464 19.5593 4.28368 19.9987 5.38835 20H10.3883C11.493 19.9987 12.552 19.5593 13.3332 18.7782C14.1143 17.997 14.5537 16.938 14.555 15.8333V15.75C15.4955 15.5566 16.3406 15.0449 16.9477 14.301C17.5549 13.5572 17.8871 12.6268 17.8883 11.6667V4.46667C17.8896 3.81701 17.6369 3.1926 17.1842 2.72667ZM10.3883 18.3333H5.38835C4.72531 18.3333 4.08942 18.0699 3.62058 17.6011C3.15174 17.1323 2.88835 16.4964 2.88835 15.8333V7.5C2.88835 6.83696 3.15174 6.20107 3.62058 5.73223C4.08942 5.26339 4.72531 5 5.38835 5V11.6667C5.38967 12.7713 5.82908 13.8304 6.6102 14.6115C7.39131 15.3926 8.45035 15.832 9.55501 15.8333H12.8883C12.8883 16.4964 12.625 17.1323 12.1561 17.6011C11.6873 18.0699 11.0514 18.3333 10.3883 18.3333ZM13.7217 14.1667H9.55501C8.89197 14.1667 8.25609 13.9033 7.78725 13.4344C7.31841 12.9656 7.05501 12.3297 7.05501 11.6667V4.16667C7.05501 3.50363 7.31841 2.86774 7.78725 2.3989C8.25609 1.93006 8.89197 1.66667 9.55501 1.66667H12.8883V3.33333C12.8883 3.77536 13.0639 4.19928 13.3765 4.51184C13.6891 4.82441 14.113 5 14.555 5H16.2217V11.6667C16.2217 12.3297 15.9583 12.9656 15.4894 13.4344C15.0206 13.9033 14.3847 14.1667 13.7217 14.1667Z" fill="white"/>
</svg>
