<svg width="12" height="7" viewBox="0 0 12 7" fill="none" xmlns="http://www.w3.org/2000/svg">
<path d="M4.87211 0.203115C5.00182 0.073245 5.17779 0.000199318 5.36134 3.8147e-05H5.71211C5.89526 0.00216484 6.07052 0.0749145 6.20134 0.203115L10.9367 4.94773C11.0241 5.03439 11.0732 5.15236 11.0732 5.27542C11.0732 5.39848 11.0241 5.51645 10.9367 5.60311L10.2813 6.2585C10.1963 6.34533 10.0798 6.39426 9.95826 6.39426C9.8367 6.39426 9.72026 6.34533 9.63518 6.2585L5.53672 2.15081L1.43826 6.2585C1.3516 6.34587 1.23363 6.39502 1.11057 6.39502C0.987508 6.39502 0.86954 6.34587 0.782879 6.2585L0.136725 5.60311C0.0493498 5.51645 0.000203133 5.39848 0.000203133 5.27542C0.000203133 5.15236 0.0493498 5.03439 0.136725 4.94773L4.87211 0.203115Z" fill="white"/>
</svg>
