<svg width="20" height="20" viewBox="0 0 20 20" fill="none" xmlns="http://www.w3.org/2000/svg">
<path d="M7.49984 15.8333H15.8332V14.1667H7.49984V15.8333ZM7.49984 10.8333H12.4998V9.16667H7.49984V10.8333ZM7.49984 4.16667V5.83333H17.4998V4.16667H7.49984ZM4.1665 3.75C4.0023 3.75005 3.83971 3.78245 3.68802 3.84534C3.53634 3.90823 3.39852 4.00038 3.28245 4.11653C3.16637 4.23268 3.07432 4.37056 3.01153 4.52229C2.94874 4.67402 2.91645 4.83663 2.9165 5.00083C2.91656 5.16504 2.94896 5.32763 3.01185 5.47932C3.07474 5.631 3.16689 5.76882 3.28304 5.88489C3.39919 6.00096 3.53706 6.09302 3.68879 6.15581C3.84052 6.2186 4.00313 6.25089 4.16734 6.25083C4.49897 6.25072 4.81697 6.11888 5.05139 5.8843C5.28581 5.64972 5.41745 5.33163 5.41734 5C5.41723 4.66837 5.28538 4.35036 5.0508 4.11594C4.81623 3.88152 4.49814 3.74989 4.1665 3.75ZM4.1665 8.75C4.0023 8.75005 3.83971 8.78245 3.68802 8.84534C3.53634 8.90823 3.39852 9.00038 3.28245 9.11653C3.16637 9.23268 3.07432 9.37056 3.01153 9.52229C2.94874 9.67402 2.91645 9.83663 2.9165 10.0008C2.91656 10.165 2.94896 10.3276 3.01185 10.4793C3.07474 10.631 3.16689 10.7688 3.28304 10.8849C3.39919 11.001 3.53706 11.093 3.68879 11.1558C3.84052 11.2186 4.00313 11.2509 4.16734 11.2508C4.49897 11.2507 4.81697 11.1189 5.05139 10.8843C5.28581 10.6497 5.41745 10.3316 5.41734 10C5.41723 9.66837 5.28538 9.35036 5.0508 9.11594C4.81623 8.88152 4.49814 8.74989 4.1665 8.75ZM4.1665 13.75C4.0023 13.7501 3.83971 13.7825 3.68802 13.8453C3.53634 13.9082 3.39852 14.0004 3.28245 14.1165C3.16637 14.2327 3.07432 14.3706 3.01153 14.5223C2.94874 14.674 2.91645 14.8366 2.9165 15.0008C2.91656 15.165 2.94896 15.3276 3.01185 15.4793C3.07474 15.631 3.16689 15.7688 3.28304 15.8849C3.39919 16.001 3.53706 16.093 3.68879 16.1558C3.84052 16.2186 4.00313 16.2509 4.16734 16.2508C4.49897 16.2507 4.81697 16.1189 5.05139 15.8843C5.28581 15.6497 5.41745 15.3316 5.41734 15C5.41723 14.6684 5.28538 14.3504 5.0508 14.1159C4.81623 13.8815 4.49814 13.7499 4.1665 13.75Z" fill="white"/>
</svg>
