<svg width="20" height="20" viewBox="0 0 20 20" fill="none" xmlns="http://www.w3.org/2000/svg">
<path d="M3.125 8.74997C2.95924 8.74997 2.80027 8.68412 2.68306 8.56691C2.56585 8.4497 2.5 8.29073 2.5 8.12497V3.12622C2.5 2.96046 2.56585 2.80149 2.68306 2.68428C2.80027 2.56707 2.95924 2.50122 3.125 2.50122H8.125C8.29076 2.50122 8.44973 2.56707 8.56694 2.68428C8.68415 2.80149 8.75 2.96046 8.75 3.12622V8.12497C8.75 8.29073 8.68415 8.4497 8.56694 8.56691C8.44973 8.68412 8.29076 8.74997 8.125 8.74997H3.125ZM11.875 8.74997C11.7092 8.74997 11.5503 8.68412 11.4331 8.56691C11.3158 8.4497 11.25 8.29073 11.25 8.12497V3.12622C11.25 2.96046 11.3158 2.80149 11.4331 2.68428C11.5503 2.56707 11.7092 2.50122 11.875 2.50122H16.8738C17.0395 2.50122 17.1985 2.56707 17.3157 2.68428C17.4329 2.80149 17.4988 2.96046 17.4988 3.12622V8.12497C17.4988 8.29073 17.4329 8.4497 17.3157 8.56691C17.1985 8.68412 17.0395 8.74997 16.8738 8.74997H11.875ZM3.125 17.5C2.95924 17.5 2.80027 17.4341 2.68306 17.3169C2.56585 17.1997 2.5 17.0407 2.5 16.875V11.875C2.5 11.7092 2.56585 11.5502 2.68306 11.433C2.80027 11.3158 2.95924 11.25 3.125 11.25H8.125C8.29076 11.25 8.44973 11.3158 8.56694 11.433C8.68415 11.5502 8.75 11.7092 8.75 11.875V16.875C8.75 17.0407 8.68415 17.1997 8.56694 17.3169C8.44973 17.4341 8.29076 17.5 8.125 17.5H3.125ZM11.875 17.5C11.7092 17.5 11.5503 17.4341 11.4331 17.3169C11.3158 17.1997 11.25 17.0407 11.25 16.875V11.875C11.25 11.7092 11.3158 11.5502 11.4331 11.433C11.5503 11.3158 11.7092 11.25 11.875 11.25H16.8738C17.0395 11.25 17.1985 11.3158 17.3157 11.433C17.4329 11.5502 17.4988 11.7092 17.4988 11.875V16.875C17.4988 17.0407 17.4329 17.1997 17.3157 17.3169C17.1985 17.4341 17.0395 17.5 16.8738 17.5H11.875Z" fill="white"/>
</svg>
