<svg width="24" height="24" viewBox="0 0 17 16" fill="none" xmlns="http://www.w3.org/2000/svg">
<path d="M10.8866 7.99995C10.8866 9.31995 9.81995 10.3866 8.49995 10.3866C7.17995 10.3866 6.11328 9.31995 6.11328 7.99995C6.11328 6.67995 7.17995 5.61328 8.49995 5.61328C9.81995 5.61328 10.8866 6.67995 10.8866 7.99995Z" stroke="currentColor" stroke-width="1.5" stroke-linecap="round" stroke-linejoin="round"/>
<path d="M8.4999 13.5133C10.8532 13.5133 13.0466 12.1266 14.5732 9.72664C15.1732 8.78665 15.1732 7.20665 14.5732 6.26665C13.0466 3.86665 10.8532 2.47998 8.4999 2.47998C6.14656 2.47998 3.95323 3.86665 2.42656 6.26665C1.82656 7.20665 1.82656 8.78665 2.42656 9.72664C3.95323 12.1266 6.14656 13.5133 8.4999 13.5133Z" stroke="currentColor" stroke-width="1.5" stroke-linecap="round" stroke-linejoin="round"/>
</svg>
