<svg width="24" height="24" viewBox="0 0 24 24" fill="none" xmlns="http://www.w3.org/2000/svg">
<g clip-path="url(#clip0_1212_18891)">
<mask id="path-1-inside-1_1212_18891" fill="white">
<path d="M12.25 0.5C5.62 0.5 0.25 5.78 0.25 12.292C0.25 17.503 3.688 21.922 8.455 23.48C9.055 23.591 9.275 23.226 9.275 22.913C9.275 22.633 9.265 21.891 9.26 20.908C5.922 21.619 5.218 19.326 5.218 19.326C4.672 17.965 3.883 17.601 3.883 17.601C2.796 16.87 3.967 16.885 3.967 16.885C5.172 16.967 5.805 18.1 5.805 18.1C6.875 19.903 8.614 19.382 9.3 19.081C9.408 18.318 9.717 17.799 10.06 17.504C7.395 17.209 4.594 16.195 4.594 11.677C4.594 10.39 5.059 9.338 5.829 8.513C5.694 8.215 5.289 7.016 5.934 5.392C5.934 5.392 6.939 5.076 9.234 6.601C10.194 6.339 11.214 6.209 12.234 6.203C13.254 6.209 14.274 6.339 15.234 6.601C17.514 5.076 18.519 5.392 18.519 5.392C19.164 7.016 18.759 8.215 18.639 8.513C19.404 9.338 19.869 10.39 19.869 11.677C19.869 16.207 17.064 17.204 14.394 17.494C14.814 17.848 15.204 18.571 15.204 19.676C15.204 21.254 15.189 22.522 15.189 22.905C15.189 23.214 15.399 23.583 16.014 23.465C20.815 21.917 24.25 17.495 24.25 12.292C24.25 5.78 18.877 0.5 12.25 0.5Z"/>
</mask>
<path d="M12.25 0.5C5.62 0.5 0.25 5.78 0.25 12.292C0.25 17.503 3.688 21.922 8.455 23.48C9.055 23.591 9.275 23.226 9.275 22.913C9.275 22.633 9.265 21.891 9.26 20.908C5.922 21.619 5.218 19.326 5.218 19.326C4.672 17.965 3.883 17.601 3.883 17.601C2.796 16.87 3.967 16.885 3.967 16.885C5.172 16.967 5.805 18.1 5.805 18.1C6.875 19.903 8.614 19.382 9.3 19.081C9.408 18.318 9.717 17.799 10.06 17.504C7.395 17.209 4.594 16.195 4.594 11.677C4.594 10.39 5.059 9.338 5.829 8.513C5.694 8.215 5.289 7.016 5.934 5.392C5.934 5.392 6.939 5.076 9.234 6.601C10.194 6.339 11.214 6.209 12.234 6.203C13.254 6.209 14.274 6.339 15.234 6.601C17.514 5.076 18.519 5.392 18.519 5.392C19.164 7.016 18.759 8.215 18.639 8.513C19.404 9.338 19.869 10.39 19.869 11.677C19.869 16.207 17.064 17.204 14.394 17.494C14.814 17.848 15.204 18.571 15.204 19.676C15.204 21.254 15.189 22.522 15.189 22.905C15.189 23.214 15.399 23.583 16.014 23.465C20.815 21.917 24.25 17.495 24.25 12.292C24.25 5.78 18.877 0.5 12.25 0.5Z" fill="currentColor"/>
<path d="M8.455 23.48L1.8276 43.7578L3.17761 44.199L4.57418 44.4574L8.455 23.48ZM9.26 20.908L30.5931 20.7995L30.4597 -5.41948L4.81566 0.0427427L9.26 20.908ZM5.218 19.326L25.6118 13.0647L25.3498 12.2114L25.0175 11.3829L5.218 19.326ZM3.883 17.601L-8.02192 35.3037L-6.60465 36.2568L-5.0538 36.9722L3.883 17.601ZM3.967 16.885L5.41538 -4.39911L4.82847 -4.43905L4.24026 -4.44658L3.967 16.885ZM5.805 18.1L-12.8188 28.505L-12.683 28.7481L-12.5409 28.9875L5.805 18.1ZM9.3 19.081L17.8717 38.6165L28.7568 33.8404L30.4228 22.0709L9.3 19.081ZM10.06 17.504L23.9707 33.6782L61.1563 1.69642L12.4071 -3.69982L10.06 17.504ZM5.829 8.513L21.4248 23.0691L31.1319 12.6687L25.2613 -0.290225L5.829 8.513ZM5.934 5.392L-0.464939 -14.959L-10.1466 -11.9148L-13.8928 -2.48256L5.934 5.392ZM9.234 6.601L-2.57279 24.3693L5.50011 29.7336L14.8508 27.1816L9.234 6.601ZM12.234 6.203L12.3595 -15.13L12.234 -15.1307L12.1085 -15.13L12.234 6.203ZM15.234 6.601L9.6172 27.1816L19.0055 29.7439L27.0945 24.3334L15.234 6.601ZM18.519 5.392L38.3458 -2.48256L34.5996 -11.9148L24.9179 -14.959L18.519 5.392ZM18.639 8.513L-1.15013 0.544222L-6.20462 13.0962L2.99595 23.0184L18.639 8.513ZM14.394 17.494L12.0904 -3.7146L-37.4826 1.66973L0.645262 33.8061L14.394 17.494ZM16.014 23.465L20.0339 44.4162L21.3171 44.17L22.5607 43.769L16.014 23.465ZM12.25 -20.8333C-5.81253 -20.8333 -21.0833 -6.34861 -21.0833 12.292H21.5833C21.5833 17.9086 17.0525 21.8333 12.25 21.8333V-20.8333ZM-21.0833 12.292C-21.0833 27.2011 -11.2567 39.4814 1.8276 43.7578L15.0824 3.20221C18.6327 4.36255 21.5833 7.80489 21.5833 12.292H-21.0833ZM4.57418 44.4574C9.61202 45.3894 17.0756 44.8454 23.3275 39.2428C28.9918 34.1667 30.6083 27.6155 30.6083 22.913H-12.0583C-12.0583 18.5235 -10.5518 12.3113 -5.14745 7.46821C0.844362 2.09862 7.89798 1.68162 12.3358 2.50262L4.57418 44.4574ZM30.6083 22.913C30.6083 22.7467 30.607 22.5698 30.606 22.4455C30.6049 22.3081 30.6033 22.1411 30.6018 21.98C30.5988 21.6441 30.5953 21.2472 30.5931 20.7995L-12.0731 21.0165C-12.0703 21.5518 -12.0663 22.0174 -12.0631 22.3683C-12.0614 22.5505 -12.0602 22.683 -12.0593 22.7941C-12.0582 22.9185 -12.0583 22.9393 -12.0583 22.913H30.6083ZM4.81566 0.0427427C6.43176 -0.30149 8.83992 -0.511145 11.6997 0.103015C14.6321 0.732786 17.2896 2.07076 19.4794 3.85874C21.5761 5.5706 22.9529 7.44942 23.8374 8.97542C24.2863 9.74993 24.6402 10.4875 24.9215 11.157C25.0634 11.4944 25.1901 11.8224 25.3037 12.1387C25.3607 12.2972 25.4146 12.4536 25.4658 12.6077C25.4914 12.6848 25.5164 12.7614 25.5407 12.8376C25.5528 12.8756 25.5648 12.9136 25.5767 12.9514C25.5826 12.9704 25.5885 12.9893 25.5944 13.0081C25.5973 13.0176 25.6016 13.0317 25.6031 13.0364C25.6075 13.0505 25.6118 13.0647 5.218 19.326C-15.1758 25.5873 -15.1714 25.6015 -15.1671 25.6156C-15.1656 25.6204 -15.1612 25.6346 -15.1583 25.6441C-15.1524 25.6631 -15.1464 25.6822 -15.1404 25.7014C-15.1284 25.7398 -15.1161 25.7786 -15.1036 25.8178C-15.0786 25.8961 -15.0526 25.976 -15.0256 26.0574C-14.9715 26.2202 -14.9132 26.3893 -14.8503 26.5644C-14.7247 26.914 -14.5796 27.2906 -14.412 27.6893C-14.0791 28.4814 -13.6441 29.3926 -13.0771 30.3709C-11.9563 32.3046 -10.1948 34.7123 -7.50494 36.9085C-1.28514 41.9868 6.52744 43.302 13.7043 41.7733L4.81566 0.0427427ZM25.0175 11.3829C23.6316 7.92846 21.6335 5.03366 19.3049 2.74339C18.1685 1.62577 17.0136 0.710877 15.9064 -0.0324621C15.3542 -0.403223 14.8158 -0.730018 14.2992 -1.01777C14.0409 -1.16166 13.7879 -1.29586 13.5411 -1.42101C13.4177 -1.48359 13.2959 -1.54393 13.1756 -1.6021C13.1155 -1.63119 13.0558 -1.65973 12.9965 -1.68775C12.9668 -1.70176 12.9373 -1.71564 12.9078 -1.72938C12.8931 -1.73626 12.8784 -1.7431 12.8637 -1.74991C12.8564 -1.75331 12.8454 -1.7584 12.8417 -1.76009C12.8308 -1.76517 12.8198 -1.77023 3.883 17.601C-5.0538 36.9722 -5.06477 36.9672 -5.07573 36.9621C-5.07938 36.9604 -5.09035 36.9553 -5.09766 36.9519C-5.11228 36.9452 -5.12691 36.9383 -5.14153 36.9315C-5.17079 36.9179 -5.20005 36.9041 -5.22932 36.8903C-5.28786 36.8626 -5.34645 36.8346 -5.40506 36.8063C-5.52229 36.7496 -5.63967 36.6914 -5.75716 36.6319C-5.99211 36.5127 -6.22763 36.3876 -6.4633 36.2564C-6.93461 35.9938 -7.40707 35.7061 -7.87679 35.3907C-8.81894 34.7582 -9.74253 34.0193 -10.6134 33.1629C-12.411 31.3948 -13.7416 29.3625 -14.5815 27.2691L25.0175 11.3829ZM15.7879 -0.101659C16.2877 0.23442 17.2734 0.932245 18.395 2.01548C19.3557 2.94338 21.527 5.20168 23.0722 8.83851C24.8565 13.0381 25.7983 19.2828 22.9132 25.7474C20.3524 31.4854 16.0813 34.3868 13.9206 35.5937C11.6399 36.8676 9.64485 37.4183 8.66778 37.6545C7.55885 37.9227 6.64824 38.044 6.09023 38.1042C5.49638 38.1683 4.99975 38.1947 4.6445 38.2068C4.45748 38.2131 4.28528 38.2163 4.13019 38.2176C4.05206 38.2183 3.9767 38.2184 3.9043 38.2182C3.86805 38.2181 3.83239 38.2179 3.79733 38.2177C3.7798 38.2175 3.7624 38.2174 3.74514 38.2172C3.73651 38.2171 3.72791 38.217 3.71935 38.2169C3.71507 38.2168 3.70865 38.2168 3.70652 38.2167C3.70014 38.2167 3.69374 38.2166 3.967 16.885C4.24026 -4.44658 4.23386 -4.44666 4.22745 -4.44674C4.2253 -4.44677 4.21886 -4.44685 4.21455 -4.4469C4.20591 -4.447 4.1972 -4.44709 4.18843 -4.44718C4.17089 -4.44737 4.15307 -4.44753 4.13498 -4.44767C4.09881 -4.44796 4.06148 -4.44816 4.02304 -4.44827C3.94628 -4.44849 3.86448 -4.44831 3.77804 -4.4476C3.60633 -4.44618 3.41003 -4.44259 3.19312 -4.4352C2.77807 -4.42108 2.19845 -4.39019 1.5118 -4.31608C0.980444 -4.25873 -2.8162 -3.92911 -6.88581 -1.65597C-9.12499 -0.405243 -13.4576 2.55136 -16.0494 8.35901C-18.9656 14.8933 -18.0245 21.2219 -16.1971 25.523C-14.6088 29.2612 -12.3507 31.6382 -11.2459 32.7052C-9.98035 33.9276 -8.79342 34.7848 -8.02192 35.3037L15.7879 -0.101659ZM2.51862 38.1691C-3.53049 37.7575 -7.52238 34.7317 -9.35726 32.9882C-10.3396 32.0547 -11.0607 31.1639 -11.5665 30.4683C-11.8291 30.1073 -12.0602 29.7621 -12.2631 29.4407C-12.3653 29.2788 -12.4623 29.12 -12.5543 28.9647C-12.6004 28.887 -12.6454 28.8098 -12.6894 28.7332C-12.7115 28.695 -12.7333 28.6568 -12.7548 28.6188C-12.7656 28.5998 -12.7763 28.5808 -12.787 28.5618C-12.7923 28.5523 -12.7976 28.5429 -12.8029 28.5334C-12.8056 28.5287 -12.8096 28.5216 -12.8109 28.5192C-12.8149 28.5121 -12.8188 28.505 5.805 18.1C24.4288 7.69499 24.4249 7.68789 24.4209 7.68078C24.4195 7.6784 24.4156 7.67127 24.4129 7.66651C24.4075 7.65697 24.4022 7.64739 24.3967 7.63778C24.3859 7.61854 24.375 7.59914 24.3639 7.57958C24.3417 7.54046 24.319 7.50068 24.2957 7.46025C24.2493 7.37942 24.2005 7.29588 24.1495 7.20981C24.0476 7.03788 23.9359 6.85462 23.814 6.66165C23.5717 6.27791 23.2818 5.84362 22.9411 5.37507C22.2789 4.46452 21.3242 3.28528 20.033 2.05832C17.5804 -0.272225 12.6695 -3.90547 5.41538 -4.39911L2.51862 38.1691ZM-12.5409 28.9875C-8.36059 36.0316 -1.38664 39.9968 5.82879 40.6309C11.6297 41.1407 16.0938 39.3966 17.8717 38.6165L0.728288 -0.45453C1.82022 -0.933642 5.07183 -2.26674 9.56421 -1.87192C12.072 -1.65152 15.0238 -0.878528 17.9063 0.899564C20.8135 2.69294 22.8462 5.01394 24.1509 7.2125L-12.5409 28.9875ZM30.4228 22.0709C29.9334 25.5283 28.192 30.0476 23.9707 33.6782L-3.85071 1.32985C-8.75802 5.55042 -11.1174 11.1077 -11.8228 16.0911L30.4228 22.0709ZM12.4071 -3.69982C12.5829 -3.68037 13.4562 -3.58056 14.6754 -3.18432C15.9355 -2.77481 17.8982 -1.94155 19.9283 -0.261596C22.0729 1.51305 23.7477 3.78759 24.7848 6.29312C25.767 8.66603 25.9273 10.6321 25.9273 11.677H-16.7393C-16.7393 18.7317 -14.2918 26.8018 -7.27304 32.6098C-1.34319 37.5168 5.16415 38.4257 7.71286 38.7078L12.4071 -3.69982ZM25.9273 11.677C25.9273 16.0303 24.1771 20.1203 21.4248 23.0691L-9.76685 -6.04312C-14.0591 -1.44433 -16.7393 4.74973 -16.7393 11.677H25.9273ZM25.2613 -0.290225C26.9024 3.33234 27.7464 8.26708 25.7608 13.2666L-13.8928 -2.48256C-17.1684 5.76492 -15.5144 13.0977 -13.6033 17.3162L25.2613 -0.290225ZM5.934 5.392C12.3329 25.743 12.3127 25.7494 12.2925 25.7557C12.2858 25.7578 12.2655 25.7641 12.252 25.7683C12.225 25.7767 12.198 25.785 12.171 25.7933C12.1169 25.8098 12.0628 25.8261 12.0086 25.8422C11.9001 25.8744 11.7914 25.9057 11.6825 25.9362C11.4645 25.9972 11.2456 26.0546 11.026 26.1085C10.5864 26.2162 10.1451 26.3093 9.70286 26.3877C8.81609 26.5448 7.93849 26.6402 7.07666 26.6786C5.34006 26.756 3.76214 26.5978 2.39038 26.3133C-0.321173 25.7508 -2.0052 24.7464 -2.57279 24.3693L21.0408 -11.1673C18.1782 -13.0694 14.8442 -14.6783 11.0564 -15.464C9.14648 -15.8602 7.17388 -16.0347 5.17712 -15.9457C4.18521 -15.9015 3.21116 -15.7933 2.26047 -15.6249C1.78625 -15.5409 1.32113 -15.4425 0.865714 -15.3308C0.638136 -15.275 0.41336 -15.216 0.191448 -15.1539C0.080507 -15.1229 -0.029674 -15.0911 -0.139088 -15.0586C-0.193793 -15.0424 -0.248302 -15.026 -0.302612 -15.0094C-0.329767 -15.0011 -0.356872 -14.9927 -0.383927 -14.9843C-0.39745 -14.9801 -0.417715 -14.9738 -0.424471 -14.9717C-0.44471 -14.9654 -0.464939 -14.959 5.934 5.392ZM14.8508 27.1816C13.8703 27.4492 13.032 27.532 12.3595 27.536L12.1085 -15.13C9.39602 -15.114 6.51774 -14.7712 3.6172 -13.9796L14.8508 27.1816ZM12.1085 27.536C11.436 27.532 10.5977 27.4492 9.6172 27.1816L20.8508 -13.9796C17.9503 -14.7712 15.072 -15.114 12.3595 -15.13L12.1085 27.536ZM27.0945 24.3334C26.5095 24.7247 24.8092 25.742 22.079 26.3103C20.6986 26.5976 19.1148 26.7562 17.3749 26.6786C16.5115 26.64 15.6333 26.5443 14.7469 26.3871C14.3047 26.3087 13.8638 26.2156 13.4248 26.1079C13.2054 26.0541 12.9869 25.9967 12.7693 25.9359C12.6605 25.9054 12.552 25.8742 12.4438 25.842C12.3897 25.8259 12.3356 25.8096 12.2817 25.7932C12.2547 25.7849 12.2277 25.7766 12.2008 25.7682C12.1873 25.7641 12.1671 25.7578 12.1604 25.7557C12.1402 25.7494 12.1201 25.743 18.519 5.392C24.9179 -14.959 24.8978 -14.9654 24.8776 -14.9717C24.8708 -14.9738 24.8506 -14.9801 24.8371 -14.9843C24.8101 -14.9927 24.7831 -15.001 24.756 -15.0093C24.7017 -15.0258 24.6473 -15.0422 24.5927 -15.0585C24.4835 -15.0909 24.3736 -15.1226 24.2628 -15.1536C24.0413 -15.2156 23.8168 -15.2745 23.5895 -15.3303C23.1347 -15.4418 22.6699 -15.5402 22.1959 -15.6243C21.2455 -15.7928 20.271 -15.9013 19.2778 -15.9457C17.2782 -16.0349 15.3006 -15.86 13.384 -15.461C9.58126 -14.6695 6.23852 -13.0477 3.37349 -11.1314L27.0945 24.3334ZM-1.30781 13.2666C-3.34502 8.13722 -2.29216 3.38026 -1.15013 0.544222L38.4281 16.4818C39.8102 13.0497 41.673 5.89478 38.3458 -2.48256L-1.30781 13.2666ZM2.99595 23.0184C0.279991 20.0894 -1.46433 16.0242 -1.46433 11.677H41.2023C41.2023 4.75576 38.528 -1.41341 34.2821 -5.99238L2.99595 23.0184ZM-1.46433 11.677C-1.46433 10.6397 -1.30566 8.66909 -0.318273 6.2871C0.725543 3.76898 2.41364 1.48304 4.57671 -0.297054C6.62241 -1.98055 8.59628 -2.80828 9.85289 -3.21184C11.0681 -3.60209 11.934 -3.69761 12.0904 -3.7146L16.6976 38.7026C19.2022 38.4306 25.7327 37.5496 31.6888 32.6481C38.7574 26.831 41.2023 18.7282 41.2023 11.677H-1.46433ZM0.645262 33.8061C-4.73816 29.2686 -6.12933 23.4326 -6.12933 19.676H36.5373C36.5373 13.7094 34.3662 6.42739 28.1427 1.18194L0.645262 33.8061ZM-6.12933 19.676C-6.12933 20.3993 -6.13277 21.0589 -6.13636 21.5963C-6.1393 22.0369 -6.14433 22.6195 -6.14433 22.905H36.5223C36.5223 22.9162 36.5223 22.9007 36.5227 22.8386C36.523 22.7819 36.5235 22.7086 36.5241 22.6128C36.5254 22.4322 36.5275 22.1669 36.5294 21.8809C36.5333 21.2941 36.5373 20.5307 36.5373 19.676H-6.12933ZM-6.14433 22.905C-6.14433 27.3822 -4.66384 34.0289 1.12083 39.2211C7.52639 44.9706 15.132 45.3567 20.0339 44.4162L11.9941 2.51383C16.281 1.6913 23.4741 1.95185 29.6209 7.46912C35.1468 12.4291 36.5223 18.7368 36.5223 22.905H-6.14433ZM22.5607 43.769C35.7348 39.5212 45.5833 27.2089 45.5833 12.292H2.91667C2.91667 7.7811 5.89518 4.31278 9.46733 3.16101L22.5607 43.769ZM45.5833 12.292C45.5833 -6.35205 30.306 -20.8333 12.25 -20.8333V21.8333C7.44797 21.8333 2.91667 17.912 2.91667 12.292H45.5833Z" fill="currentColor" mask="url(#path-1-inside-1_1212_18891)"/>
</g>
<defs>
<clipPath id="clip0_1212_18891">
<rect width="24" height="24" fill="white" transform="translate(0.25)"/>
</clipPath>
</defs></svg>
