<svg width="24" height="24" viewBox="0 0 24 24" fill="none" xmlns="http://www.w3.org/2000/svg">
<path d="M4.90349 17.3814C5.00793 18.5172 5.49094 19.6268 6.35905 20.4949C8.33024 22.4661 11.5612 22.4726 13.5389 20.4949L16.8025 17.2313C18.7737 15.2601 18.7737 12.0227 16.8025 10.0515C14.8313 8.08026 11.6003 8.07374 9.62262 10.0515L7.99083 11.6832" stroke="currentColor" stroke-width="1.5" stroke-linecap="round" stroke-linejoin="round"/>
<path d="M18.258 6.70339C18.1536 5.56766 17.6706 4.45805 16.8025 3.58994C14.8313 1.61875 11.6003 1.61222 9.62262 3.58994L6.35905 6.85351C4.38785 8.82471 4.38785 12.0622 6.35905 14.0334C8.33024 16.0046 11.5612 16.0111 13.5389 14.0334L15.1707 12.4016" stroke="currentColor" stroke-width="1.5" stroke-linecap="round" stroke-linejoin="round"/></svg>
