<svg width="24" height="24" viewBox="0 0 24 24" fill="none" xmlns="http://www.w3.org/2000/svg">
<path d="M12 17.4V8.6M5.2 8.6H18.8C19.9046 8.6 20.8 7.70457 20.8 6.6V4C20.8 2.89543 19.9046 2 18.8 2H5.2C4.09543 2 3.2 2.89543 3.2 4V6.6C3.2 7.70457 4.09543 8.6 5.2 8.6ZM3 21.8H3.4C4.50457 21.8 5.4 20.9046 5.4 19.8V19.4C5.4 18.2954 4.50457 17.4 3.4 17.4H3C1.89543 17.4 1 18.2954 1 19.4V19.8C1 20.9046 1.89543 21.8 3 21.8Z" stroke="currentColor" stroke-width="2" stroke-linecap="round" stroke-linejoin="round"/>
<path d="M3.2002 17.4V15C3.2002 13.8955 4.09563 13 5.2002 13H18.8002C19.9048 13 20.8002 13.8955 20.8002 15V17.4M6.5002 5.30005H7.60019M11.8002 21.8H12.2002C13.3048 21.8 14.2002 20.9046 14.2002 19.8V19.4C14.2002 18.2955 13.3048 17.4 12.2002 17.4H11.8002C10.6956 17.4 9.80019 18.2955 9.80019 19.4V19.8C9.80019 20.9046 10.6956 21.8 11.8002 21.8ZM20.6002 21.8H21.0002C22.1048 21.8 23.0002 20.9046 23.0002 19.8V19.4C23.0002 18.2955 22.1048 17.4 21.0002 17.4H20.6002C19.4956 17.4 18.6002 18.2955 18.6002 19.4V19.8C18.6002 20.9046 19.4956 21.8 20.6002 21.8Z" stroke="currentColor" stroke-width="2" stroke-linecap="round" stroke-linejoin="round"/>
</svg>
