<svg width="24" height="24" viewBox="0 0 24 24" fill="none" xmlns="http://www.w3.org/2000/svg">
<path fill-rule="evenodd" clip-rule="evenodd" d="M22 12C22 17.519 17.52 22 12 22C6.47 22 2 17.519 2 12C2 6.479 6.47 2 12 2C17.52 2 22 6.479 22 12ZM12.88 15.79C12.88 16.269 12.48 16.67 12 16.67C11.52 16.67 11.13 16.269 11.13 15.79V11.37C11.13 10.889 11.52 10.5 12 10.5C12.48 10.5 12.88 10.889 12.88 11.37V15.79ZM11.99 7.319C12.48 7.319 12.87 7.719 12.87 8.199C12.87 8.679 12.48 9.069 12 9.069C11.51 9.069 11.12 8.679 11.12 8.199C11.12 7.719 11.51 7.319 11.99 7.319Z" fill="#4776E6"/></svg>
