<svg width="24" height="24" viewBox="0 0 20 20" fill="none" xmlns="http://www.w3.org/2000/svg">
<g clip-path="url(#clip0_348_10003)">
<path fill-rule="evenodd" clip-rule="evenodd" d="M9.58317 2.41669C5.62513 2.41669 2.4165 5.62531 2.4165 9.58335C2.4165 13.5414 5.62513 16.75 9.58317 16.75C13.5412 16.75 16.7498 13.5414 16.7498 9.58335C16.7498 5.62531 13.5412 2.41669 9.58317 2.41669ZM0.916504 9.58335C0.916504 4.79689 4.7967 0.916687 9.58317 0.916687C14.3696 0.916687 18.2498 4.79689 18.2498 9.58335C18.2498 14.3698 14.3696 18.25 9.58317 18.25C4.7967 18.25 0.916504 14.3698 0.916504 9.58335Z" fill="currentColor"/>
<path fill-rule="evenodd" clip-rule="evenodd" d="M16.1362 16.1364C16.4291 15.8435 16.9039 15.8435 17.1968 16.1364L18.8635 17.803C19.1564 18.0959 19.1564 18.5708 18.8635 18.8637C18.5706 19.1566 18.0957 19.1566 17.8028 18.8637L16.1362 17.197C15.8433 16.9041 15.8433 16.4293 16.1362 16.1364Z" fill="currentColor"/>
</g>
<defs>
<clipPath id="clip0_348_10003">
<rect width="20" height="20" fill="currentColor"/>
</clipPath>
</defs>
</svg>
