<svg width="24" height="24" viewBox="0 0 16 16" fill="none" xmlns="http://www.w3.org/2000/svg">
<path d="M6.73707 3.36836C6.73707 5.2287 5.22907 6.73671 3.36884 6.73671C1.50854 6.73671 0 5.2287 0 3.36836C0 1.50802 1.50793 0 3.36884 0C5.22846 0 6.73707 1.50802 6.73707 3.36836Z" fill="white"/>
<path d="M12.9132 6.72512C14.6418 6.58212 16 5.1339 16 3.36836C16 1.50802 14.492 0 12.6317 0C10.7715 0 9.26351 1.50802 9.26351 3.36836V3.36836C9.26351 3.36836 8.97094 5.75596 7.57879 7.15791C6.30636 8.43929 3.41165 9.17535 2.9232 9.29247C1.27303 9.51045 0 10.9223 0 12.6317C0 14.492 1.50854 16 3.36884 16C4.07751 16 4.73505 15.7811 5.27758 15.4073C7.20693 14.3799 8.92718 14.5519 10.8538 15.4931C11.3699 15.8144 11.9791 16 12.6317 16C14.492 16 16 14.492 16 12.6317C16 10.7713 14.492 9.26327 12.6317 9.26327C11.2849 9.26327 10.1228 10.0537 9.58383 11.1961C9.32107 11.5591 8.82976 12.0617 8.12372 12.0617C7.50181 12.0617 7.11311 11.9386 6.89209 11.8309C7.17125 11.1906 7.82578 9.86587 8.84238 8.84207C9.95269 7.72395 12.0924 6.98037 12.9132 6.72512Z" fill="url(#paint0_linear_904_88387)"/>
<defs>
<linearGradient id="paint0_linear_904_88387" x1="8.02254" y1="12.979" x2="12.2154" y2="-0.0448774" gradientUnits="userSpaceOnUse">
<stop stop-color="#088DB2"/>
<stop offset="1" stop-color="#32B8B2"/>
</linearGradient>
</defs>
</svg>
