<svg width="12" height="7" viewBox="0 0 12 7" fill="none" xmlns="http://www.w3.org/2000/svg">
<path d="M6.20113 6.58692C6.07143 6.71679 5.89545 6.78984 5.7119 6.79H5.36114C5.17798 6.78787 5.00272 6.71512 4.8719 6.58692L0.136522 1.84231C0.0491472 1.75565 0 1.63768 0 1.51462C0 1.39155 0.0491472 1.27359 0.136522 1.18693L0.791907 0.531542C0.876981 0.444713 0.993424 0.395784 1.11498 0.395784C1.23654 0.395784 1.35299 0.444713 1.43806 0.531542L5.53652 4.63923L9.63498 0.531542C9.72164 0.444167 9.83961 0.39502 9.96267 0.39502C10.0857 0.39502 10.2037 0.444167 10.2904 0.531542L10.9365 1.18693C11.0239 1.27359 11.073 1.39155 11.073 1.51462C11.073 1.63768 11.0239 1.75565 10.9365 1.84231L6.20113 6.58692Z" fill="white"/>
</svg>
