<svg width="24" height="24" viewBox="0 0 24 24" fill="none" xmlns="http://www.w3.org/2000/svg">
<g clip-path="url(#clip0_676_11584)">
<path d="M10.2245 5.4278C10.2245 8.06578 8.11018 10.2042 5.50185 10.2042C2.89353 10.2042 0.77832 8.06578 0.77832 5.4278C0.77832 2.78982 2.89267 0.651428 5.50185 0.651428C8.10933 0.651428 10.2245 2.78982 10.2245 5.4278Z" fill="white"/>
<path fill-rule="evenodd" clip-rule="evenodd" d="M18.8833 10.1879C21.3074 9.98553 23.2122 7.93174 23.2122 5.42786C23.2122 2.78988 21.0979 0.651489 18.4896 0.651489C15.8812 0.651489 13.7669 2.78988 13.7669 5.42786C13.7669 5.42808 13.7669 5.42831 13.7669 5.42853L13.7659 5.42772C13.7659 5.42772 13.3565 8.81336 11.4046 10.8014C9.61851 12.6204 5.55283 13.6644 4.87455 13.8287C2.56203 14.1389 0.77832 16.1404 0.77832 18.5633C0.77832 21.2013 2.89353 23.3397 5.50185 23.3397C6.4961 23.3397 7.41858 23.029 8.17953 22.4983C10.8841 21.0424 13.2958 21.2865 15.9968 22.6209C16.7203 23.0765 17.5745 23.3397 18.4896 23.3397C21.0979 23.3397 23.2122 21.2013 23.2122 18.5633C23.2122 15.9253 21.0979 13.787 18.4896 13.787C16.6015 13.787 14.9722 14.9075 14.2164 16.5269C13.8481 17.0417 13.159 17.7551 12.1686 17.7551C11.2965 17.7551 10.7515 17.5804 10.4416 17.4277C10.833 16.5199 11.7508 14.6413 13.1762 13.1895C14.7327 11.6043 17.7319 10.55 18.8833 10.1879Z" fill="url(#paint0_linear_676_11584)"/>
</g>
<defs>
<linearGradient id="paint0_linear_676_11584" x1="0.77832" y1="11.9956" x2="23.2122" y2="11.9956" gradientUnits="userSpaceOnUse">
<stop stop-color="#E6007A"/>
<stop offset="1" stop-color="#9F125D"/>
</linearGradient>
<clipPath id="clip0_676_11584">
<rect width="24" height="24" fill="white"/>
</clipPath>
</defs>
</svg>
