<svg width="96" height="34" viewBox="0 0 96 34" fill="none" xmlns="http://www.w3.org/2000/svg">
<g clip-path="url(#clip0_138_10153)">
<path d="M12.429 9.10063C12.429 12.1783 9.96229 14.6731 6.91924 14.6731C3.87619 14.6731 1.40845 12.1783 1.40845 9.10063C1.40845 6.02299 3.87519 3.5282 6.91924 3.5282C9.96129 3.5282 12.429 6.02299 12.429 9.10063Z" fill="white"/>
<path fill-rule="evenodd" clip-rule="evenodd" d="M22.5312 14.6541C25.3593 14.418 27.5816 12.0219 27.5816 9.10076C27.5816 6.02311 25.1149 3.52832 22.0718 3.52832C19.0288 3.52832 16.562 6.02311 16.562 9.10076C16.562 9.10102 16.562 9.10127 16.562 9.10153L16.5609 9.10059C16.5609 9.10059 16.0833 13.0505 13.806 15.3698C11.7225 17.4918 6.9801 18.7097 6.18792 18.9016C3.48971 19.2633 1.40845 21.5985 1.40845 24.4255C1.40845 27.5031 3.87619 29.9979 6.91924 29.9979C8.07885 29.9979 9.15477 29.6356 10.0424 29.0169C13.1982 27.3177 16.012 27.6023 19.1635 29.1593C20.0076 29.6909 21.0042 29.9979 22.0718 29.9979C25.1149 29.9979 27.5816 27.5031 27.5816 24.4255C27.5816 21.3478 25.1149 18.853 22.0718 18.853C19.869 18.853 17.9682 20.1603 17.0864 22.0496C16.6568 22.6502 15.8528 23.4825 14.6973 23.4825C13.68 23.4825 13.0441 23.2788 12.6826 23.1006C13.1392 22.0414 14.2099 19.8498 15.8729 18.156C17.6888 16.3067 21.1878 15.0766 22.5312 14.6541Z" fill="url(#paint0_linear_138_10153)"/>
</g>
<path d="M38.684 25C38.524 25 38.388 24.944 38.276 24.832C38.164 24.72 38.108 24.584 38.108 24.424V8.536C38.108 8.376 38.164 8.24 38.276 8.128C38.388 8.016 38.524 7.96 38.684 7.96H40.676C40.836 7.96 40.972 8.016 41.084 8.128C41.196 8.24 41.252 8.376 41.252 8.536V24.424C41.252 24.584 41.196 24.72 41.084 24.832C40.972 24.944 40.836 25 40.676 25H38.684ZM48.0596 25.24C47.2276 25.24 46.4756 25.08 45.8036 24.76C45.1316 24.424 44.5956 23.984 44.1956 23.44C43.8116 22.88 43.6196 22.256 43.6196 21.568C43.6196 20.448 44.0676 19.56 44.9636 18.904C45.8756 18.232 47.0756 17.784 48.5636 17.56L51.8516 17.08V16.576C51.8516 15.904 51.6836 15.384 51.3476 15.016C51.0116 14.648 50.4356 14.464 49.6196 14.464C49.0436 14.464 48.5716 14.584 48.2036 14.824C47.8516 15.048 47.5876 15.352 47.4116 15.736C47.2836 15.944 47.0996 16.048 46.8596 16.048H44.9636C44.7876 16.048 44.6516 16 44.5556 15.904C44.4756 15.808 44.4356 15.68 44.4356 15.52C44.4516 15.264 44.5556 14.952 44.7476 14.584C44.9396 14.216 45.2436 13.864 45.6596 13.528C46.0756 13.176 46.6116 12.88 47.2676 12.64C47.9236 12.4 48.7156 12.28 49.6436 12.28C50.6516 12.28 51.4996 12.408 52.1876 12.664C52.8916 12.904 53.4516 13.232 53.8676 13.648C54.2836 14.064 54.5876 14.552 54.7796 15.112C54.9716 15.672 55.0676 16.264 55.0676 16.888V24.424C55.0676 24.584 55.0116 24.72 54.8996 24.832C54.7876 24.944 54.6516 25 54.4916 25H52.5476C52.3716 25 52.2276 24.944 52.1156 24.832C52.0196 24.72 51.9716 24.584 51.9716 24.424V23.488C51.7636 23.792 51.4836 24.08 51.1316 24.352C50.7796 24.608 50.3476 24.824 49.8356 25C49.3396 25.16 48.7476 25.24 48.0596 25.24ZM48.8756 22.96C49.4356 22.96 49.9396 22.84 50.3876 22.6C50.8516 22.36 51.2116 21.992 51.4676 21.496C51.7396 20.984 51.8756 20.344 51.8756 19.576V19.072L49.4756 19.456C48.5316 19.6 47.8276 19.832 47.3636 20.152C46.8996 20.472 46.6676 20.864 46.6676 21.328C46.6676 21.68 46.7716 21.984 46.9796 22.24C47.2036 22.48 47.4836 22.664 47.8196 22.792C48.1556 22.904 48.5076 22.96 48.8756 22.96ZM58.7225 25C58.5625 25 58.4265 24.944 58.3145 24.832C58.2025 24.72 58.1465 24.584 58.1465 24.424V13.12C58.1465 12.944 58.2025 12.8 58.3145 12.688C58.4265 12.576 58.5625 12.52 58.7225 12.52H60.6665C60.8265 12.52 60.9625 12.576 61.0745 12.688C61.2025 12.8 61.2665 12.944 61.2665 13.12V14.104C61.6345 13.592 62.1065 13.2 62.6825 12.928C63.2745 12.656 63.9545 12.52 64.7225 12.52H65.7065C65.8825 12.52 66.0185 12.576 66.1145 12.688C66.2265 12.8 66.2825 12.936 66.2825 13.096V14.824C66.2825 14.984 66.2265 15.12 66.1145 15.232C66.0185 15.344 65.8825 15.4 65.7065 15.4H63.8345C63.0665 15.4 62.4665 15.616 62.0345 16.048C61.6185 16.48 61.4105 17.072 61.4105 17.824V24.424C61.4105 24.584 61.3545 24.72 61.2425 24.832C61.1305 24.944 60.9865 25 60.8105 25H58.7225ZM73.3903 25.24C72.2383 25.24 71.2223 25.024 70.3423 24.592C69.4783 24.16 68.7983 23.536 68.3023 22.72C67.8223 21.888 67.5583 20.888 67.5103 19.72C67.4943 19.48 67.4863 19.168 67.4863 18.784C67.4863 18.384 67.4943 18.056 67.5103 17.8C67.5583 16.632 67.8223 15.64 68.3023 14.824C68.7983 13.992 69.4783 13.36 70.3423 12.928C71.2223 12.496 72.2383 12.28 73.3903 12.28C74.4143 12.28 75.2863 12.424 76.0063 12.712C76.7263 13 77.3183 13.36 77.7823 13.792C78.2463 14.224 78.5903 14.68 78.8143 15.16C79.0543 15.624 79.1823 16.048 79.1983 16.432C79.2143 16.608 79.1583 16.752 79.0303 16.864C78.9183 16.96 78.7823 17.008 78.6223 17.008H76.5103C76.3503 17.008 76.2223 16.968 76.1263 16.888C76.0463 16.808 75.9663 16.688 75.8863 16.528C75.6463 15.888 75.3263 15.44 74.9263 15.184C74.5423 14.912 74.0463 14.776 73.4383 14.776C72.6383 14.776 71.9983 15.032 71.5183 15.544C71.0543 16.04 70.8063 16.832 70.7743 17.92C70.7423 18.528 70.7423 19.088 70.7743 19.6C70.8063 20.704 71.0543 21.504 71.5183 22C71.9983 22.496 72.6383 22.744 73.4383 22.744C74.0623 22.744 74.5663 22.616 74.9503 22.36C75.3343 22.088 75.6463 21.632 75.8863 20.992C75.9663 20.832 76.0463 20.712 76.1263 20.632C76.2223 20.552 76.3503 20.512 76.5103 20.512H78.6223C78.7823 20.512 78.9183 20.568 79.0303 20.68C79.1583 20.776 79.2143 20.912 79.1983 21.088C79.1823 21.376 79.1023 21.704 78.9583 22.072C78.8303 22.424 78.6143 22.792 78.3103 23.176C78.0223 23.544 77.6543 23.888 77.2063 24.208C76.7583 24.512 76.2143 24.76 75.5743 24.952C74.9503 25.144 74.2223 25.24 73.3903 25.24ZM82.3012 25C82.1412 25 82.0052 24.944 81.8932 24.832C81.7812 24.72 81.7252 24.584 81.7252 24.424V8.536C81.7252 8.376 81.7812 8.24 81.8932 8.128C82.0052 8.016 82.1412 7.96 82.3012 7.96H84.4372C84.6132 7.96 84.7492 8.016 84.8452 8.128C84.9572 8.24 85.0132 8.376 85.0132 8.536V14.008C85.4452 13.496 85.9732 13.08 86.5972 12.76C87.2212 12.44 87.9892 12.28 88.9012 12.28C89.8772 12.28 90.7252 12.504 91.4452 12.952C92.1812 13.384 92.7492 14 93.1492 14.8C93.5492 15.6 93.7492 16.56 93.7492 17.68V24.424C93.7492 24.584 93.6932 24.72 93.5812 24.832C93.4692 24.944 93.3332 25 93.1732 25H91.0132C90.8532 25 90.7172 24.944 90.6052 24.832C90.4932 24.72 90.4372 24.584 90.4372 24.424V17.824C90.4372 16.896 90.2052 16.168 89.7412 15.64C89.2932 15.112 88.6372 14.848 87.7732 14.848C86.9412 14.848 86.2692 15.112 85.7572 15.64C85.2612 16.168 85.0132 16.896 85.0132 17.824V24.424C85.0132 24.584 84.9572 24.72 84.8452 24.832C84.7492 24.944 84.6132 25 84.4372 25H82.3012Z" fill="white"/>
<defs>
<linearGradient id="paint0_linear_138_10153" x1="1.40845" y1="16.7631" x2="27.5816" y2="16.7631" gradientUnits="userSpaceOnUse">
<stop stop-color="#E6007A"/>
<stop offset="1" stop-color="#9F125D"/>
</linearGradient>
<clipPath id="clip0_138_10153">
<rect width="28" height="27" fill="white" transform="translate(0.5 3.5)"/>
</clipPath>
</defs>
</svg>
