<svg width="24" height="24" viewBox="0 0 24 24" fill="none" xmlns="http://www.w3.org/2000/svg">
<path fill-rule="evenodd" clip-rule="evenodd" d="M3.27858 3.2787C2.71597 3.84131 2.3999 4.60437 2.3999 5.40002V16.2C2.3999 16.9957 2.71597 17.7587 3.27858 18.3213C3.84119 18.884 4.60425 19.2 5.3999 19.2H7.2419C7.2143 19.0044 7.1999 18.804 7.1999 18.6V18H5.3999C4.92251 18 4.46468 17.8104 4.12711 17.4728C3.78954 17.1353 3.5999 16.6774 3.5999 16.2V5.40002C3.5999 4.92263 3.78954 4.4648 4.12711 4.12723C4.46468 3.78967 4.92251 3.60002 5.3999 3.60002H16.1999C16.6773 3.60002 17.1351 3.78967 17.4727 4.12723C17.8103 4.4648 17.9999 4.92263 17.9999 5.40002V9.60003H18.5999C18.8006 9.5998 19.0012 9.61383 19.1999 9.64202V5.40002C19.1999 4.60437 18.8838 3.84131 18.3212 3.2787C17.7586 2.71609 16.9956 2.40002 16.1999 2.40002H5.3999C4.60425 2.40002 3.84119 2.71609 3.27858 3.2787ZM6.17564 6.17576C6.06312 6.28828 5.9999 6.44089 5.9999 6.60002C5.9999 6.75915 6.06312 6.91177 6.17564 7.02429C6.28816 7.13681 6.44077 7.20002 6.5999 7.20002H14.9999C15.159 7.20002 15.3116 7.13681 15.4242 7.02429C15.5367 6.91177 15.5999 6.75915 15.5999 6.60002C15.5999 6.44089 15.5367 6.28828 15.4242 6.17576C15.3116 6.06324 15.159 6.00002 14.9999 6.00002H6.5999C6.44077 6.00002 6.28816 6.06324 6.17564 6.17576ZM9.27858 11.6787C8.71597 12.2413 8.3999 13.0044 8.3999 13.8V18.6C8.3999 19.3957 8.71597 20.1587 9.27858 20.7213C9.84119 21.284 10.6043 21.6 11.3999 21.6H18.5999C19.3956 21.6 20.1586 21.284 20.7212 20.7213C21.2838 20.1587 21.5999 19.3957 21.5999 18.6V13.8C21.5999 13.0044 21.2838 12.2413 20.7212 11.6787C20.1586 11.1161 19.3956 10.8 18.5999 10.8H11.3999C10.6043 10.8 9.84119 11.1161 9.27858 11.6787ZM10.2466 12.4177C10.5703 12.1477 10.9784 11.9999 11.3999 12H18.5999C19.0214 11.9999 19.4295 12.1477 19.7532 12.4177C20.0768 12.6876 20.2955 13.0626 20.3711 13.4772L20.3999 14.8596V18.6C20.3999 19.0774 20.2103 19.5353 19.8727 19.8728C19.5351 20.2104 19.0773 20.4 18.5999 20.4H11.3999C10.9225 20.4 10.4647 20.2104 10.1271 19.8728C9.78954 19.5353 9.5999 19.0774 9.5999 18.6V14.8596L9.6287 13.4772C9.70429 13.0626 9.92297 12.6876 10.2466 12.4177Z" fill="white"/>
<path fill-rule="evenodd" clip-rule="evenodd" d="M18.5999 10.8H18.6013C18.746 10.8001 18.8896 10.8106 19.0312 10.8312C19.5788 10.9107 20.0951 11.1405 20.5216 11.4963C20.5906 11.5538 20.6572 11.6147 20.7212 11.6787C20.7941 11.7516 20.8629 11.8279 20.9274 11.9071C21.2468 12.2999 21.4609 12.7664 21.5513 13.2621C21.5628 13.325 21.5722 13.3883 21.5797 13.452C21.5931 13.567 21.5999 13.6832 21.5999 13.8V18.6C21.5999 19.3957 21.2838 20.1587 20.7212 20.7213C20.1586 21.284 19.3956 21.6 18.5999 21.6H11.3999C10.7066 21.6 10.038 21.36 9.50526 20.9261C9.42663 20.862 9.35095 20.7937 9.27858 20.7213C8.81885 20.2616 8.52374 19.668 8.43118 19.0322C8.41047 18.8899 8.3999 18.7455 8.3999 18.6V13.8C8.3999 13.6832 8.40672 13.567 8.42014 13.452C8.42758 13.3883 8.43705 13.325 8.44851 13.2621C8.5571 12.6664 8.84444 12.1128 9.27858 11.6787C9.34261 11.6147 9.40923 11.5538 9.4782 11.4963C10.0153 11.0483 10.6948 10.8 11.3999 10.8H18.5999ZM19.1999 5.40002C19.1999 4.60437 18.8838 3.84131 18.3212 3.2787C17.7586 2.71609 16.9956 2.40002 16.1999 2.40002H5.3999C4.60425 2.40002 3.84119 2.71609 3.27858 3.2787C2.71597 3.84131 2.3999 4.60437 2.3999 5.40002V16.2C2.3999 16.9957 2.71597 17.7587 3.27858 18.3213C3.80054 18.8433 4.49503 19.1531 5.228 19.1951C5.28509 19.1984 5.34241 19.2 5.3999 19.2H7.2419C7.2143 19.0044 7.1999 18.804 7.1999 18.6V18H5.3999C4.92251 18 4.46468 17.8104 4.12711 17.4728C3.78954 17.1353 3.5999 16.6774 3.5999 16.2V5.40002C3.5999 4.92263 3.78954 4.4648 4.12711 4.12723C4.46468 3.78967 4.92251 3.60002 5.3999 3.60002H16.1999C16.6773 3.60002 17.1351 3.78967 17.4727 4.12723C17.8103 4.4648 17.9999 4.92263 17.9999 5.40002V9.60003H18.5999C18.6032 9.60003 18.6065 9.60003 18.6098 9.60003C18.8072 9.60027 19.0044 9.61429 19.1999 9.64202V5.40002ZM6.5999 6.00002C6.44077 6.00002 6.28816 6.06324 6.17564 6.17576C6.06312 6.28828 5.9999 6.44089 5.9999 6.60002C5.9999 6.75915 6.06312 6.91177 6.17564 7.02429C6.28816 7.13681 6.44077 7.20002 6.5999 7.20002H14.9999C15.159 7.20002 15.3116 7.13681 15.4242 7.02429C15.5367 6.91177 15.5999 6.75915 15.5999 6.60002C15.5999 6.44089 15.5367 6.28828 15.4242 6.17576C15.3116 6.06324 15.159 6.00002 14.9999 6.00002H6.5999ZM11.3999 12C10.9784 11.9999 10.5703 12.1477 10.2466 12.4177C10.205 12.4524 10.165 12.4889 10.1269 12.527C9.86903 12.7848 9.69455 13.116 9.6287 13.4772L9.5999 14.8596V18.6C9.5999 19.0774 9.78954 19.5353 10.1271 19.8728C10.4647 20.2104 10.9225 20.4 11.3999 20.4H18.5999C19.0773 20.4 19.5351 20.2104 19.8727 19.8728C20.2103 19.5353 20.3999 19.0774 20.3999 18.6V14.8596L20.3711 13.4772C20.3053 13.116 20.1308 12.7848 19.8729 12.527C19.8348 12.4889 19.7948 12.4524 19.7532 12.4177C19.4295 12.1477 19.0214 11.9999 18.5999 12H11.3999Z" fill="white"/>
<path fill-rule="evenodd" clip-rule="evenodd" d="M12.3999 19C12.3999 18.6687 12.6685 18.4 12.9999 18.4H16.9999C17.3313 18.4 17.5999 18.6687 17.5999 19C17.5999 19.3314 17.3313 19.6 16.9999 19.6H12.9999C12.6685 19.6 12.3999 19.3314 12.3999 19Z" fill="white"/>
</svg>
